# xmcd
#
# Track frame offsets:
#	150
#	21959
#	42688
#	64373
#	89966
#	109941
#	123743
#	144018
#	160161
#	174001
#	192551
#	213596
#
# Disc length: 3106 seconds
#
# Revision: 1
# Processed by: cddbd v1.5.1PL0 Copyright (c) Steve Scherf et al.
# Submitted via: audiograbber 1.82.02
#
DISCID=b70c200c
DTITLE=Daniel and Samuel - Semelhança
DYEAR=2002
DGENRE=Gospel
TTITLE0=Semelhança
TTITLE1=Lágrimas
TTITLE2=O Amor de Jesus
TTITLE3=A Volta do Senhor
TTITLE4=Deus Prova
TTITLE5=Vai Gideão
TTITLE6=O Mesmo Deus
TTITLE7=Dicionário de Deus
TTITLE8=Caravana do Céu
TTITLE9=Somos Assim
TTITLE10=Abraão e Isaque
TTITLE11=Filho
EXTD=
EXTT0=
EXTT1=
EXTT2=
EXTT3=
EXTT4=
EXTT5=
EXTT6=
EXTT7=
EXTT8=
EXTT9=
EXTT10=
EXTT11=
PLAYORDER=
